<?xml version="1.0" encoding="utf-8"?>
<!-- Generator: Adobe Illustrator 19.2.0, SVG Export Plug-In . SVG Version: 6.00 Build 0)  -->
<svg version="1.1" id="Calque_1" xmlns="http://www.w3.org/2000/svg" xmlns:xlink="http://www.w3.org/1999/xlink" x="0px" y="0px"
	 viewBox="0 0 1280 800" style="enable-background:new 0 0 1280 800;" xml:space="preserve">
<style type="text/css">
	.st0{fill:#29ABE2;}
	.st1{fill:#F2F2F2;}
	.st2{fill:#006837;}
	.st3{fill:#FCEE21;}
	.st4{fill:#ED1C24;}
	.st5{fill:#FBB03B;}
	.st6{fill:#F15A24;}
</style>
<rect class="st0" width="1280" height="800"/>
<circle class="st1" cx="257.5" cy="199.5" r="45.5"/>
<circle class="st1" cx="312.5" cy="234" r="34.5"/>
<circle class="st1" cx="268" cy="255" r="28"/>
<circle class="st1" cx="193" cy="251" r="58"/>
<circle class="st1" cx="945.5" cy="253.5" r="90.5"/>
<circle class="st1" cx="1032" cy="333.5" r="65"/>
<circle class="st1" cx="953.8" cy="353.8" r="62.8"/>
<circle class="st1" cx="1026" cy="266" r="47"/>
<circle class="st1" cx="877.5" cy="343.5" r="45.5"/>
<circle class="st1" cx="811.3" cy="300.3" r="66.3"/>
<circle class="st1" cx="1078.5" cy="284.3" r="27.5"/>
<circle class="st1" cx="860.1" cy="267.9" r="48.9"/>
<circle class="st1" cx="116.5" cy="231.5" r="50.5"/>
<circle class="st1" cx="161.5" cy="199.5" r="36.5"/>
<path class="st2" d="M0,688c0,0,488-62,555,14s530-62,603-45s122,45,122,78s0,65,0,65H0V688z"/>
<rect x="286" y="566" class="st3" width="167" height="150"/>
<polygon class="st4" points="235.1,600.1 369.5,429 496,601 "/>
<circle class="st5" cx="818" cy="246" r="73"/>
<g>
	<line class="st6" x1="780" y1="163" x2="754" y2="103"/>
	<path class="st6" d="M780,163c0,0-0.7-0.8-1.9-2.3c-1.1-1.5-2.7-3.6-4.3-6.2c-1.7-2.6-3.5-5.7-5.3-9.1c-0.9-1.7-1.8-3.5-2.7-5.3
		c-0.9-1.8-1.7-3.7-2.5-5.5c-0.8-1.9-1.6-3.8-2.3-5.6c-0.7-1.9-1.4-3.7-2-5.6c-1.3-3.6-2.3-7.1-3-10.1c-0.8-3-1.3-5.6-1.6-7.4
		c-0.3-1.8-0.4-2.9-0.4-2.9s0.7,0.8,1.9,2.3c1.1,1.5,2.7,3.6,4.3,6.2c1.7,2.6,3.5,5.7,5.3,9.1c0.9,1.7,1.8,3.5,2.7,5.3
		c0.9,1.8,1.7,3.7,2.5,5.5c0.8,1.9,1.6,3.8,2.3,5.6c0.7,1.9,1.4,3.7,2,5.6c1.3,3.6,2.3,7.1,3,10.1c0.8,3,1.3,5.6,1.6,7.4
		C779.9,161.9,780,163,780,163z"/>
</g>
<g>
	<line class="st6" x1="746.7" y1="194.4" x2="697.3" y2="151.6"/>
	<path class="st6" d="M746.7,194.4c0,0-1-0.4-2.6-1.2c-1.6-0.8-3.9-2.1-6.6-3.7c-2.6-1.6-5.6-3.6-8.7-5.9c-1.5-1.1-3.1-2.4-4.7-3.6
		c-1.6-1.3-3.1-2.6-4.7-3.9c-1.5-1.4-3.1-2.7-4.5-4.1c-1.5-1.4-2.9-2.8-4.2-4.1c-2.7-2.7-5.1-5.4-7.1-7.8c-2-2.4-3.5-4.5-4.6-6
		c-1-1.5-1.6-2.4-1.6-2.4s1,0.4,2.6,1.2c1.6,0.8,3.9,2.1,6.6,3.7c2.6,1.6,5.6,3.6,8.7,5.9c1.5,1.1,3.1,2.3,4.7,3.6
		c1.6,1.3,3.1,2.6,4.7,3.9c1.5,1.4,3.1,2.7,4.5,4.1c1.5,1.4,2.9,2.8,4.2,4.1c2.7,2.7,5.1,5.4,7.1,7.8c2,2.4,3.6,4.5,4.6,6
		C746.1,193.5,746.7,194.4,746.7,194.4z"/>
</g>
<g>
	<line class="st6" x1="724.7" y1="235.1" x2="661.3" y2="218.9"/>
	<path class="st6" d="M724.7,235.1c0,0-1.1,0.1-2.9,0.1c-1.8,0-4.5-0.1-7.6-0.4c-3.1-0.3-6.7-0.7-10.5-1.4c-1.9-0.3-3.8-0.7-5.8-1.1
		c-2-0.4-4-0.9-5.9-1.4c-2-0.5-4-1-5.9-1.6c-1.9-0.6-3.8-1.2-5.6-1.8c-3.6-1.2-7-2.5-9.8-3.8c-2.8-1.2-5.2-2.4-6.8-3.3
		c-1.6-0.9-2.5-1.5-2.5-1.5s1.1-0.1,2.9-0.1c1.8,0,4.5,0.1,7.6,0.4c3.1,0.3,6.7,0.7,10.4,1.4c1.9,0.3,3.8,0.7,5.8,1.1
		c2,0.4,4,0.9,5.9,1.4c2,0.5,4,1,5.9,1.6c1.9,0.6,3.8,1.2,5.6,1.8c3.6,1.2,7,2.5,9.8,3.8c2.8,1.2,5.2,2.4,6.8,3.3
		C723.8,234.5,724.7,235.1,724.7,235.1z"/>
</g>
<ellipse class="st1" cx="882.3" cy="255.9" rx="84.8" ry="56.4"/>
<ellipse class="st1" cx="832.5" cy="291" rx="84.8" ry="56.4"/>
<g>
	<line class="st6" x1="818" y1="154" x2="818" y2="88.6"/>
	<path class="st6" d="M818,154c0,0-0.3-1-0.8-2.8c-0.5-1.8-1-4.3-1.5-7.4c-0.5-3.1-0.9-6.6-1.2-10.5c-0.2-1.9-0.3-3.9-0.3-5.9
		c-0.1-2-0.1-4.1-0.1-6.1c0-2,0-4.1,0.1-6.1c0.1-2,0.2-4,0.3-5.9c0.3-3.8,0.7-7.4,1.2-10.5c0.5-3.1,1.1-5.6,1.5-7.4
		c0.5-1.8,0.8-2.8,0.8-2.8s0.3,1,0.8,2.8c0.5,1.8,1,4.3,1.5,7.4c0.5,3.1,0.9,6.6,1.2,10.5c0.1,1.9,0.3,3.9,0.3,5.9
		c0.1,2,0.1,4.1,0.1,6.1c0,2,0,4.1-0.1,6.1c-0.1,2-0.2,4-0.3,5.9c-0.3,3.8-0.7,7.4-1.2,10.5c-0.5,3.1-1.1,5.6-1.5,7.4
		C818.3,153,818,154,818,154z"/>
</g>
</svg>
