<?xml version="1.0" encoding="utf-8"?>
<!-- Generator: Adobe Illustrator 19.2.0, SVG Export Plug-In . SVG Version: 6.00 Build 0)  -->
<svg version="1.1" id="Calque_1" xmlns="http://www.w3.org/2000/svg" xmlns:xlink="http://www.w3.org/1999/xlink" x="0px" y="0px"
	 viewBox="0 0 960 560" style="enable-background:new 0 0 960 560;" xml:space="preserve">
<style type="text/css">
	.st0{fill:#8C6239;stroke:#FCEE21;stroke-miterlimit:10;}
</style>
<g>
	<path class="st0" d="M81.9,48.6c-2.4-4.6-4.4-7.2-6.9-7.5L70,40.5V26.7h75.7l11.8,14.7v11.1l-5.1,0.8c-3.4,0.6-7.8,1.8-10.8,7.2
		L131.8,78v37l9.7,12.7v11.4h-43l-9.4-12.6v-13.8l5.7-0.9c3-0.6,3.9-4.8,3.9-10v-21L81.9,48.6z M72.7,37.9l3.9,0.6
		c3.1,0.5,4.9,4.4,7.8,10l16.9,32.2v21.7c0,6.9-1.2,11.2-4.9,12l-4.8,0.8v8.5h36.3v-8.5l-4.8-0.8c-3.8-0.8-4.9-5.1-4.9-12V74.4
		l16.6-30.1c1.6-2.8,2.8-5.2,4.8-5.5l5.1-0.8v-8.5h-29.8v8.5l4.6,0.8c2.8,0.6,3.4,3.4,1.3,7l-9.3,16.9L102,45.3
		c-2-3.5-1.1-6,2.2-6.6l4.6-0.8v-8.5H72.7V37.9z M106.2,31.9v3.3l-4,0.6c-3.6,0.6-5.8,4.5-3,9.7l10.9,19.6c0.8,1.3,2.1,1.3,2.8,0
		l10.9-19.8c2.7-4.8,1-8.7-3.1-9.3l-3.4-0.6v-3.6h24.9v3.3l-3.3,0.6c-2.5,0.6-4.5,3.1-6.6,7L114.4,75c-1.5-1.2-3.3-1.2-4.9,0
		c0.9,2.3,2.3,4.6,4.8,7.3c-2.3,8.2-3.8,16.9-4.6,25c-1-8.1-2.5-16.8-4.9-25c2.7-3,3.6-4.9,3.9-7.3c-2.4-1.6-5.5-1.2-7,0L87.4,48.1
		c-3.5-6.3-6-11.8-9.9-12.4l-2.4-0.5v-3.3H106.2z M109.3,74.8c-1.5-4-2.4-7.9-2.3-11.2c-5.1-5-10.6-12.6-15-19.5
		c2.7,6.9,5.7,16.3,6.3,21c4.4,3.1,7.2,5.9,10.3,9.8H109.3z"/>
	<path class="st0" d="M234.1,97c0,28.8-15.6,43-36.4,43c-21.4,0-42-15.9-42-48.7V62.5c0-22.5,16.2-36.7,33.7-36.7
		c28.6,0,44.7,25.5,44.7,43.6V97z M220.5,62.2c-0.1-18.7-12.3-33.9-31-33.9c-18.7,0-31,16.2-31,33.9l-0.1,28.6
		c-0.1,20.4,12.4,33.9,31.2,33.9c18.9,0,31.2-16,31-34.9V62.2z M175.9,75c-1.2-1.2-4.2-1.2-7.2,0c0.8,1.9,2.5,4.9,4.6,7.3
		c-2.1,4.9-4.6,14.4-2.7,24.6c-3.9-10.6-6-19.5-7-24.6c2.1-2.4,3.6-5.4,4.6-7.3c-2.8-1.2-6-1.2-7.3,0V62.2
		c0-15.3,10.2-31.3,28.5-31.3c18.1,0,28.3,16,28.3,31.3V75c-1.3-1.2-4.3-1.2-7.3,0c1,1.9,2.5,4.9,4.6,7.3
		c-0.9,5.5-2.1,13.8-6.9,24.6c1.1-10.8-0.6-19.6-2.8-24.6c2.3-2.4,3.9-5.4,4.6-7.3c-3-1.2-6-1.2-7.2,0V54.7
		c0-14.5-5.7-19.3-13.3-19.3c-7.8,0-13.5,4.8-13.5,19.3V75z M168.7,74.7c0.8-5.2,2.5-8.1,4.6-10.5c-2.7-5.8-2.7-12-1.5-20.1
		c-4.2,7.2-6.4,13-8.2,20.1c2.1,2.4,3.7,5.3,4.6,10.5H168.7z M178.8,54.7c0-8.4,1.6-16.6,10.6-16.6c8.8,0,10.6,8.2,10.6,16.6v39.9
		c0,10.2-1.8,20.5-10.6,20.5c-9,0-10.6-9.6-10.6-20.5V54.7z M197.5,60c0-6-0.3-10.2-2.4-10.2c-1.8,0-2.9,3-2.9,10.9v35.4
		c0,5.9,0.5,12.6,2,12.6c2.3,0,3.3-6.3,3.3-14.4V60z M210.4,74.7c0.9-5.2,2.5-8.1,4.6-10.5c-2-6.9-3.9-13.2-8.2-20.1
		c1.2,6.6,1.2,14.2-1.5,20.1c2.3,2.4,3.9,5.3,4.6,10.5H210.4z"/>
	<path class="st0" d="M308.2,103c0,4,3,5.1,5.4,5.1c2.8,0,5.5-3.6,5.5-9.1v-8.4h14.5l11.2,15.1v33.4h-70l-9.6-12.6v-13.8l5.8-0.9
		c2.8-0.6,3.9-4.8,3.9-10V50.7c0-6.9-2.1-9-4.9-9.3l-4.8-0.9V26.7h41.5L318,41.4v11.8l-4.6,0.8c-2.7,0.3-5.1,3.4-5.1,11.5V103z
		 M277.6,102.6c0,6.9-1.2,11.2-4.8,12l-4.8,0.8v8.5h63.3V93.1h-9.4v8.2c0,7.2-3.7,10.6-14.2,10.6c-10.9,0-13-4.8-13-13.3v-48
		c0-7,1.8-11.4,4.8-12l4.8-0.8v-8.5H268v8.5l4.8,0.8c3,0.6,4.8,4.9,4.8,12V102.6z M280.3,50.7c0-11.4-3.1-14.2-5.8-14.8l-3.9-0.6
		v-3.3h31v3.3l-3.9,0.6c-2.7,0.6-5.8,3.4-5.8,14.8V75c-1.5-1.2-3.6-1.2-5.5,0c0.9,1.9,2.5,5.1,4.8,7.3c-2.3,4.9-3.9,11.8-4.9,24.6
		c-1.1-12.7-2.7-19.6-5-24.6c2.3-2.3,3.9-5.4,4.6-7.3c-2.1-1.2-4-1.2-5.5,0V50.7z M286.3,74.8c0.9-5.3,2.5-8.3,4.8-10.5
		c-2.3-3.6-3.9-9-4.9-20.2c-1.1,11.2-2.7,16.6-5,20.2c2.3,2.2,3.9,5.2,4.6,10.5H286.3z"/>
	<path class="st0" d="M393.7,26.7l16.8,17.5l16,61.8c1.4,4.8,4.8,11.7,9.6,14.7v18.4h-38.8l-3.9-5.2v5.2h-38.1L345,125.4v-12.3
		l3.9-1.2c3.8-1.2,6.4-6.1,9.9-18.7l17.8-66.4H393.7z M391.6,93.3l1,4.5c2.4,11.4,0.6,15.3-3.3,16.5l-3.9,1v8.5h36.9v-8.5l-4.2-1.6
		c-2.5-0.9-5.1-5.2-7.8-15.7l-17.7-68.5h-13.9l-17.2,63.7c-4.2,15.4-6.7,19.9-10.5,21.1l-3.3,1v8.5h31.8v-8.5l-3.9-1
		c-3.3-1.2-5.5-7.6-3.3-16.5l1.2-4.5H391.6z M381,31.9h9.4l11.2,43c-1.8-1.2-3.6-1.2-5.4,0c0.9,1.9,3.3,5.1,5.8,7.3
		c-0.8,6.1-1,12.4,0.8,24.6c-3.9-12.1-6.3-17.7-10.3-24.6c1.5-2.3,3.1-5.4,3.3-7.3c-2.3-1.2-4.2-1.2-5.4,0L384,45.1h-0.3L375.6,75
		c-1.8-1.2-3.9-1.2-6.1,0L381,31.9z M376.9,79.9l6.3-22.9h0.6l4.9,22.9H376.9z M396.3,74.8c0-5.3,0.6-8.3,1.5-10.5
		c-2.7-3.6-4.9-9-9-20.2c1.4,11.2,1.2,16.6,0.5,20.2c2.3,2.2,4.3,5.2,6.6,10.5H396.3z"/>
	<path class="st0" d="M140.7,319.2c-1.2-1.7-2.7-3.2-4.6-3.2c-1.8,0-3.9,0.6-6.7,1.8c-3.8,1.5-8.5,2.3-12.6,2.3
		c-23.7,0-44.2-22.3-44.2-52.8v-25c0-21.1,15-36.4,32.8-36.4c5.5,0,9.4,0.9,13,2.4c2.4,1.2,4.8,2.7,6,2.7c0.9,0,1.2-2.3,1.2-4.5
		h13.6l12.6,14.2v42.4l7.5,8.2V288H154c-2.5,0-4.5,1.5-4.5,5v26.2H140.7z M135.9,280.2c0-4.3,0.9-7.8,4.5-7.8h5.1V261h-30.7v11.4
		h2.4c3,0,5.4,2.2,5.4,7.9c0,12.4-7,14.8-13.5,14.8c-9.6,0-13.6-12.2-13.6-20.5v-39.9c0-8.4,1.8-16.6,10.8-16.6
		c11.7,0,16.3,20.5,16.5,35.4h15.4v-44.5h-10.2c0,2-0.6,4.8-2.4,4.8c-2.3,0-4.8-1.5-7.2-2.5c-3.8-1.8-7.8-2.8-12.1-2.8
		c-19.6,0-31,16.9-31,33.9v25c0,18.3,9,37.5,31.5,37.5c4.8,0,9.4-0.5,11.8-1.5c2.4-1.1,4.5-2.1,6.1-2.1s2.7,1.4,3.3,2.7h7.9V280.2z
		 M77.7,244.2c0-17.7,11.1-33.3,28.5-33.3c4.5,0,8.2,1.3,11.1,2.7c3,1.6,5.7,2.9,9,2.9c2.3,0,4.4-2.5,4.4-4.8h4.8v39.3h-10
		c-1-18.7-6.9-35.5-19.2-35.5c-11.4,0-13.5,9.8-13.5,19.3V255c-2.3-1.2-4.6-1.2-7.2,0c0.8,2.1,2.5,5.1,4.5,7.3
		c-1.4,6.1-2.3,14.4-2.7,24.6c-2.8-9.6-5.1-18.1-6.9-24.6c2.1-2.3,3.7-5.2,4.6-7.3c-2.8-1.2-5.2-1.2-7.3,0V244.2z M85.5,254.8
		c0.8-5.4,2.5-8.3,4.5-10.5c-2.5-6-2.5-12.1-1.4-20.2c-4.3,6.9-6.3,14.4-8.2,20.2c2.1,2.2,3.7,5.1,4.6,10.5H85.5z M120.1,254.5
		c-1-20.8-3.9-24.7-7.2-24.7c-3.7,0-3.9,4.2-3.9,10.9v41.8c0,3.9,2.1,7.5,5.7,7.5c3.7,0,5.2-4,5.2-9.7c0-3.8-2.8-5.4-5.4-5.4H112
		v-16.5h11.4L120.1,254.5z"/>
	<path class="st0" d="M204.1,206.7l16.8,17.5l16,61.8c1.4,4.8,4.8,11.7,9.6,14.7v18.4h-38.8l-3.9-5.3v5.3h-38.1l-10.3-13.8v-12.3
		l3.9-1.2c3.8-1.2,6.4-6.2,9.9-18.7l17.8-66.4H204.1z M202,273.3l1,4.5c2.4,11.4,0.6,15.3-3.3,16.5l-3.9,1v8.5h36.9v-8.5l-4.2-1.6
		c-2.5-0.9-5.1-5.3-7.8-15.7l-17.7-68.5h-13.9l-17.2,63.7c-4.2,15.4-6.7,19.9-10.5,21.1l-3.3,1v8.5h31.8v-8.5l-3.9-1
		c-3.3-1.2-5.5-7.6-3.3-16.5l1.2-4.5H202z M191.4,211.9h9.4l11.2,43c-1.8-1.2-3.6-1.2-5.4,0c0.9,1.9,3.3,5.1,5.8,7.3
		c-0.8,6.1-1,12.4,0.8,24.6c-3.9-12.1-6.3-17.7-10.3-24.6c1.5-2.3,3.1-5.4,3.3-7.3c-2.3-1.2-4.2-1.2-5.4,0l-6.4-29.8h-0.3L186,255
		c-1.8-1.2-3.9-1.2-6.1,0L191.4,211.9z M187.3,259.9l6.3-22.9h0.6l4.9,22.9H187.3z M206.7,254.8c0-5.3,0.6-8.3,1.5-10.5
		c-2.7-3.6-4.9-9-9-20.2c1.4,11.2,1.2,16.6,0.5,20.2c2.3,2.2,4.3,5.2,6.6,10.5H206.7z"/>
	<path class="st0" d="M301.9,319.2l-10.3-13.8l-9.9-27.6v16.6l8.2,10.9v13.8h-34.3l-9.6-12.6v-13.8l5.8-0.9c2.8-0.6,3.9-4.8,3.9-10
		v-51.1c0-6.9-2.1-9-4.9-9.3l-4.8-0.9v-13.8h38.4l5.5,7.4v-7.4h34.2l11.1,14.7v11.8l-4.6,0.8c-2.7,0.3-4.9,3.4-4.9,11.5v73.6H301.9z
		 M267.9,230.7h0.3l26.2,73.2h17.4v-73.2c0-7,1.8-11.4,4.9-12l4.6-0.8v-8.5h-28.8v8.5l4.8,0.8c3,0.6,4.8,4.9,4.8,12v32.5h-0.1
		l-19.8-53.8h-33.6v8.5l4.8,0.8c3,0.6,4.8,4.9,4.8,12v51.9c0,6.9-1.2,11.2-4.8,12l-4.8,0.8v8.5h27.4v-8.5l-3.3-0.8
		c-3.8-0.9-4.9-5.1-4.9-12V230.7z M280,211.9l15.7,43c-2.9-1.2-5.4-1.2-7.8,0c1.5,1.9,3.8,4.5,6.9,7.3c0.3,5.3,1.2,11.7,3.7,24.6
		c-5.7-12.4-9.6-19.3-13-24.6c1.2-2.7,2-5.4,2-7.3c-3.1-1.2-5.5-1.2-7.4,0l-9-24.7c-0.9-2.7-1.8-4.4-3.8-4.4c-1.8,0-2.1,2.3-2.1,4.5
		V255c-1.4-1.2-3.1-1.2-4.4,0v-24.3c0-11.4-3.1-14.2-5.8-14.8l-3.9-0.6v-3.3H280z M288,254.8c0-5.3,0-8.3,0.1-11.4
		c-4-4.8-7.6-10.6-12.7-20.5c2.9,10,3.9,16.2,3,21.4c3.4,2.2,5.8,5.2,9.1,10.5H288z M318.9,211.9v3.3l-3.9,0.6
		c-2.7,0.6-5.9,3.4-5.9,14.8V255c-0.9-1.2-3.1-1.2-4.2,0v-24.3c0-11.4-3.1-14.2-5.8-14.8l-3.9-0.6v-3.3H318.9z"/>
	<path class="st0" d="M405.4,319.2c-1.2-1.7-2.7-3.2-4.6-3.2c-1.8,0-3.9,0.6-6.7,1.8c-3.8,1.5-8.5,2.3-12.6,2.3
		c-23.7,0-44.2-22.3-44.2-52.8v-25c0-21.1,15-36.4,32.8-36.4c5.5,0,9.4,0.9,13,2.4c2.4,1.2,4.8,2.7,6,2.7c0.9,0,1.2-2.3,1.2-4.5
		h13.6l12.6,14.2v42.4l7.5,8.2V288h-5.2c-2.5,0-4.5,1.5-4.5,5v26.2H405.4z M400.6,280.2c0-4.3,0.9-7.8,4.5-7.8h5.1V261h-30.7v11.4
		h2.4c3,0,5.4,2.2,5.4,7.9c0,12.4-7,14.8-13.5,14.8c-9.6,0-13.6-12.2-13.6-20.5v-39.9c0-8.4,1.8-16.6,10.8-16.6
		c11.7,0,16.3,20.5,16.5,35.4h15.4v-44.5h-10.2c0,2-0.6,4.8-2.4,4.8c-2.3,0-4.8-1.5-7.2-2.5c-3.8-1.8-7.8-2.8-12.1-2.8
		c-19.6,0-31,16.9-31,33.9v25c0,18.3,9,37.5,31.5,37.5c4.8,0,9.4-0.5,11.8-1.5c2.4-1.1,4.5-2.1,6.1-2.1s2.7,1.4,3.3,2.7h7.9V280.2z
		 M342.4,244.2c0-17.7,11.1-33.3,28.5-33.3c4.5,0,8.2,1.3,11.1,2.7c3,1.6,5.7,2.9,9,2.9c2.3,0,4.4-2.5,4.4-4.8h4.8v39.3h-10
		c-1-18.7-6.9-35.5-19.2-35.5c-11.4,0-13.5,9.8-13.5,19.3V255c-2.3-1.2-4.6-1.2-7.2,0c0.8,2.1,2.5,5.1,4.5,7.3
		c-1.4,6.1-2.3,14.4-2.7,24.6c-2.8-9.6-5.1-18.1-6.9-24.6c2.1-2.3,3.7-5.2,4.6-7.3c-2.8-1.2-5.2-1.2-7.3,0V244.2z M350.2,254.8
		c0.8-5.4,2.5-8.3,4.5-10.5c-2.5-6-2.5-12.1-1.4-20.2c-4.3,6.9-6.3,14.4-8.2,20.2c2.1,2.2,3.7,5.1,4.6,10.5H350.2z M384.9,254.5
		c-1-20.8-3.9-24.7-7.2-24.7c-3.7,0-3.9,4.2-3.9,10.9v41.8c0,3.9,2.1,7.5,5.7,7.5c3.7,0,5.2-4,5.2-9.7c0-3.8-2.8-5.4-5.4-5.4h-2.5
		v-16.5h11.4L384.9,254.5z"/>
</g>
</svg>
